<?xml version="1.0" encoding="UTF-8"?>
<svg xmlns="http://www.w3.org/2000/svg" viewBox="0 0 256 256" width="256px" height="256px">
<defs>
<radialGradient id="radial0" gradientUnits="userSpaceOnUse" cx="86" cy="84.65625" fx="86" fy="84.65625" r="85.330811" gradientTransform="matrix(1.488372,0,0,1.488372,0,0)">
<stop offset="0" style="stop-color:rgb(100%,77.254903%,77.254903%);stop-opacity:1;"/>
<stop offset="0.35" style="stop-color:rgb(100%,80.392158%,80.392158%);stop-opacity:1;"/>
<stop offset="0.907" style="stop-color:rgb(100%,89.411765%,89.411765%);stop-opacity:1;"/>
<stop offset="1" style="stop-color:rgb(100%,91.37255%,91.37255%);stop-opacity:1;"/>
</radialGradient>
<linearGradient id="linear0" gradientUnits="userSpaceOnUse" x1="86" y1="24.1875" x2="86" y2="158.5625" gradientTransform="matrix(1.488372,0,0,1.488372,0,0)">
<stop offset="0" style="stop-color:rgb(91.764706%,58.039218%,58.039218%);stop-opacity:1;"/>
<stop offset="0.259" style="stop-color:rgb(93.333334%,47.843137%,47.843137%);stop-opacity:1;"/>
<stop offset="0.624" style="stop-color:rgb(100%,32.941177%,32.941177%);stop-opacity:1;"/>
<stop offset="1" style="stop-color:rgb(100%,0%,0%);stop-opacity:1;"/>
</linearGradient>
<linearGradient id="linear1" gradientUnits="userSpaceOnUse" x1="43" y1="8.57581" x2="43" y2="48.888309" gradientTransform="matrix(1.488372,0,0,1.488372,0,0)">
<stop offset="0" style="stop-color:rgb(100%,69.803923%,69.803923%);stop-opacity:1;"/>
<stop offset="0.611" style="stop-color:rgb(100%,66.666669%,66.666669%);stop-opacity:1;"/>
<stop offset="1" style="stop-color:rgb(100%,56.470591%,56.470591%);stop-opacity:1;"/>
</linearGradient>
</defs>
<g id="surface41381064">
<path style=" stroke:none;fill-rule:nonzero;fill:url(#radial0);" d="M 242 128 C 250.671875 128 257.566406 120.007812 255.6875 111.027344 C 254.320312 104.488281 248.222656 100 241.539062 100 L 172 100 L 172 72 L 229.542969 72 C 236.222656 72 242.324219 67.511719 243.691406 60.972656 C 245.566406 51.988281 238.671875 44 230 44 L 184 44 C 179.578125 44 176 40.421875 176 36 C 176 31.578125 179.578125 28 184 28 L 201.539062 28 C 208.21875 28 214.320312 23.511719 215.6875 16.972656 C 217.566406 7.992188 210.671875 0 202 0 L 42.460938 0 C 35.777344 0 29.679688 4.488281 28.3125 11.027344 C 26.433594 20.007812 33.328125 28 42 28 L 52 28 C 56.421875 28 60 31.578125 60 36 C 60 40.421875 56.421875 44 52 44 L 26.460938 44 C 19.78125 44 13.679688 48.488281 12.3125 55.027344 C 10.433594 64.007812 17.328125 72 26 72 L 88 72 L 88 132 L 14.457031 132 C 7.777344 132 1.675781 136.488281 0.308594 143.027344 C -1.566406 152.007812 5.328125 160 14 160 L 16 160 C 20.421875 160 24 163.578125 24 168 C 24 172.421875 20.421875 176 16 176 L 14.460938 176 C 7.78125 176 1.679688 180.488281 0.3125 187.027344 C -1.566406 196.007812 5.328125 204 14 204 L 98.460938 204 C 103.726562 204 108 208.273438 108 213.539062 L 108 214.457031 C 108 219.726562 103.726562 224 98.460938 224 L 78.460938 224 C 71.78125 224 65.679688 228.488281 64.3125 235.027344 C 62.433594 244.007812 69.328125 252 78 252 L 233.539062 252 C 240.21875 252 246.320312 247.511719 247.6875 240.972656 C 249.566406 231.992188 242.671875 224 234 224 L 221.539062 224 C 216.273438 224 212 219.726562 212 214.460938 L 212 213.542969 C 212 208.273438 216.273438 204 221.539062 204 C 228.21875 204 234.320312 199.511719 235.6875 192.972656 C 237.566406 183.992188 230.671875 176 222 176 L 172 176 L 172 128 Z M 242 128 "/>
<path style=" stroke:none;fill-rule:nonzero;fill:url(#linear0);" d="M 208 36 L 48 36 C 36.957031 36 28 44.957031 28 56 L 28 225.398438 C 28 231.257812 32.742188 236 38.601562 236 L 38.628906 236 C 42.003906 236 45.179688 234.390625 47.175781 231.667969 L 67.339844 204.171875 C 71.109375 199.035156 77.097656 196 83.46875 196 L 208 196 C 219.042969 196 228 187.042969 228 176 L 228 56 C 228 44.957031 219.042969 36 208 36 Z M 208 36 "/>
<path style=" stroke:none;fill-rule:nonzero;fill:url(#linear1);" d="M 62 96 L 28 96 L 28 56 C 28 44.957031 36.957031 36 48 36 L 78 36 C 83.523438 36 88 40.476562 88 46 C 88 51.523438 83.523438 56 78 56 L 58 56 C 52.476562 56 48 60.476562 48 66 C 48 71.523438 52.476562 76 58 76 L 62 76 C 67.523438 76 72 80.476562 72 86 C 72 91.523438 67.523438 96 62 96 Z M 92 80 C 87.578125 80 84 83.578125 84 88 C 84 92.421875 87.578125 96 92 96 C 96.421875 96 100 92.421875 100 88 C 100 83.578125 96.421875 80 92 80 Z M 92 80 "/>
<path style=" stroke:none;fill-rule:nonzero;fill:rgb(100%,100%,100%);fill-opacity:1;" d="M 124 104 L 132 104 C 136.421875 104 140 107.578125 140 112 L 140 156 C 140 160.421875 136.421875 164 132 164 L 124 164 C 119.578125 164 116 160.421875 116 156 L 116 112 C 116 107.578125 119.578125 104 124 104 Z M 140 80 C 140 86.632812 134.632812 92 128 92 C 121.367188 92 116 86.632812 116 80 C 116 73.367188 121.367188 68 128 68 C 134.632812 68 140 73.367188 140 80 Z M 140 80 "/>
</g>
</svg>
